<svg xmlns="http://www.w3.org/2000/svg" version="1.1" viewBox="0 0 50 50"><rect width="0.5" height="50" x="0.0" y="0"/><rect width="0.5" height="50" x="1.1" y="0"/><rect width="0.5" height="50" x="2.6" y="0"/><rect width="1.1" height="50" x="4.2" y="0"/><rect width="0.5" height="50" x="5.8" y="0"/><rect width="0.5" height="50" x="8.4" y="0"/><rect width="1.6" height="50" x="10.0" y="0"/><rect width="0.5" height="50" x="12.1" y="0"/><rect width="1.1" height="50" x="13.2" y="0"/><rect width="0.5" height="50" x="15.8" y="0"/><rect width="0.5" height="50" x="18.4" y="0"/><rect width="0.5" height="50" x="19.5" y="0"/><rect width="1.6" height="50" x="20.5" y="0"/><rect width="1.1" height="50" x="22.6" y="0"/><rect width="0.5" height="50" x="24.2" y="0"/><rect width="0.5" height="50" x="25.3" y="0"/><rect width="0.5" height="50" x="26.3" y="0"/><rect width="0.5" height="50" x="27.9" y="0"/><rect width="1.6" height="50" x="30.0" y="0"/><rect width="0.5" height="50" x="32.1" y="0"/><rect width="1.6" height="50" x="33.7" y="0"/><rect width="0.5" height="50" x="36.3" y="0"/><rect width="1.1" height="50" x="37.4" y="0"/><rect width="1.1" height="50" x="39.5" y="0"/><rect width="1.1" height="50" x="41.1" y="0"/><rect width="1.1" height="50" x="42.6" y="0"/><rect width="1.6" height="50" x="44.7" y="0"/><rect width="0.5" height="50" x="47.4" y="0"/><rect width="0.5" height="50" x="48.4" y="0"/><rect width="0.5" height="50" x="49.5" y="0.0"/></svg>